# xmcd
#
# Track frame offsets:
#	150
#	20995
#	39413
#	56330
#	76744
#	95381
#	108775
#	124628
#	140262
#	157038
#	176735
#	196189
#	214045
#	233172
#	250634
#
# Disc length: 3637 seconds
#
# Revision: 1
# Processed by: cddbd v1.5.1PL2 Copyright (c) Steve Scherf et al.
# Submitted via: EasyCDDAExtractor 9.1.3.1
#
DISCID=bb0e330f
DTITLE=LeAnn Rimes - Sittin' On Top Of The World
DYEAR=2000
DGENRE=Country
TTITLE0=Commitment
TTITLE1=Looking Through Your Eyes
TTITLE2=Undeniable
TTITLE3=Feels Like Home
TTITLE4=Surrender
TTITLE5=These Arms Of Mine
TTITLE6=Nothin' New Under The Moon
TTITLE7=When Am I Gonna Get Over You (Feat  Bryan White)
TTITLE8=Rock Me
TTITLE9=More Than Anyone Deserves
TTITLE10=Insensitive
TTITLE11=All The Lovin' And Hurtin
TTITLE12=Sittin' On Top Of The World
TTITLE13=The Heart Never Forgets
TTITLE14=Purple Rain
EXTD=
EXTT0=
EXTT1=
EXTT2=
EXTT3=
EXTT4=
EXTT5=
EXTT6=
EXTT7=
EXTT8=
EXTT9=
EXTT10=
EXTT11=
EXTT12=
EXTT13=
EXTT14=
PLAYORDER=
